#!OML:ASF G:\JayActor3\Patient Classification 1\Patient 1\Session 2\male.ASF
:FULLY-SPECIFIED
:DEGREES
2677
root 18.9457 17.1367 -8.83172 1665.37 -100.634 -588.465
lowerback -2.90364 3.04493 9.115
upperback -3.45547 3.85167 1.33621
thorax -1.46011 1.71783 -3.62546
lowerneck -3.47128 14.249 8.75341
upperneck 20.7027 16.8972 7.93277
head 7.03719 9.29341 2.39248
rclavicle 1.94312e-014 6.75868e-015
rhumerus -57.9615 23.1717 -109.125
rradius 104.768
rwrist -14.3305
rhand 7.6251 7.19181
rfingers 7.12502
rthumb 32.8705 -19.8356
lclavicle 1.94312e-014 6.75868e-015
lhumerus -28.2856 -47.2433 110.05
lradius 141.14
lwrist 38.8798
lhand -4.77082 5.9796
lfingers 7.12502
lthumb 21.0136 34.8612
rfemur 8.81841 -12.3572 32.9718
rtibia 20.7682
rfoot -11.0021 -5.34808
rtoes 4.23213
lfemur -22.9094 6.9448 -18.8347
ltibia 19.3042
lfoot 1.74777 10.1063
ltoes -16.502
2678
root 18.8544 17.1392 -8.82509 1665.4 -100.699 -588.408
lowerback -3.10233 3.09153 9.18316
upperback -3.50403 3.89001 1.31697
thorax -1.38943 1.73592 -3.67194
lowerneck -3.42946 14.2424 8.76889
upperneck 20.7364 16.8802 7.9777
head 7.03881 9.29011 2.40119
rclavicle -5.96354e-016 6.75868e-015
rhumerus -57.9973 23.0995 -109.111
rradius 104.782
rwrist -14.3211
rhand 7.63049 7.18764
rfingers 7.12502
rthumb 32.8756 -19.8387
lclavicle -5.96354e-016 6.75868e-015
lhumerus -28.2517 -47.2502 109.997
lradius 141.145
lwrist 38.8536
lhand -4.758 5.9615
lfingers 7.12502
lthumb 21.0259 34.8417
rfemur 9.19035 -12.434 32.9165
rtibia 20.5089
rfoot -10.6937 -5.21133
rtoes 4.06996
lfemur -22.6072 7.37878 -19.07
ltibia 17.9774
lfoot 2.68489 9.59301
ltoes -16.7133
2679
root 18.7621 17.1404 -8.81736 1665.51 -100.777 -588.427
lowerback -3.31133 3.13972 9.28056
upperback -3.55843 3.92833 1.29891
thorax -1.31752 1.75313 -3.7327
lowerneck -3.39261 14.2349 8.78069
upperneck 20.7735 16.8609 8.02714
head 7.04167 9.28598 2.41213
rclavicle 2.78795e-014 2.42517e-014
rhumerus -58.037 23.0188 -109.096
rradius 104.799
rwrist -14.3233
rhand 7.62263 7.18064
rfingers 7.12502
rthumb 32.8682 -19.8473
lclavicle 2.78795e-014 2.42517e-014
lhumerus -28.2274 -47.262 109.947
lradius 141.149
lwrist 38.8421
lhand -4.7483 5.94301
lfingers 7.12502
lthumb 21.0352 34.8222
rfemur 9.55507 -12.4944 32.8827
rtibia 20.2563
rfoot -10.3989 -5.07948
rtoes 3.95291
lfemur -22.3415 7.74481 -19.2625
ltibia 16.8134
lfoot 3.39189 9.13168
ltoes -16.9754
2680
root 18.669 17.1401 -8.80851 1665.71 -100.866 -588.52
lowerback -3.5348 3.1898 9.40664
upperback -3.61756 3.96627 1.28191
thorax -1.24092 1.76946 -3.8073
lowerneck -3.35952 14.2291 8.79069
upperneck 20.8098 16.8436 8.07862
head 7.04451 9.28285 2.42433
rclavicle 1.26725e-014 2.82274e-014
rhumerus -58.0788 22.9314 -109.082
rradius 104.815
rwrist -14.331
rhand 7.60001 7.17108
rfingers 7.12502
rthumb 32.8466 -19.8614
lclavicle 1.26725e-014 2.82274e-014
lhumerus -28.2076 -47.2795 109.896
lradius 141.155
lwrist 38.8452
lhand -4.74648 5.93418
lfingers 7.12502
lthumb 21.037 34.8131
rfemur 9.908 -12.5354 32.8706
rtibia 20.0145
rfoot -10.1177 -4.94607
rtoes 3.87927
lfemur -22.1235 8.0454 -19.4117
ltibia 15.8262
lfoot 3.88439 8.73807
ltoes -17.2982
2681
root 18.5752 17.1385 -8.79866 1665.97 -100.965 -588.673
lowerback -3.77008 3.24153 9.55703
upperback -3.67786 4.00353 1.26702
thorax -1.15777 1.78511 -3.89225
lowerneck -3.33232 14.2256 8.7958
upperneck 20.8416 16.8295 8.13105
head 7.0463 9.28105 2.43787
rclavicle -2.80783e-014 -2.26615e-014
rhumerus -58.1175 22.8413 -109.067
rradius 104.829
rwrist -14.3381
rhand 7.5604 7.1592
rfingers 7.12502
rthumb 32.809 -19.8811
lclavicle -2.80783e-014 -2.26615e-014
lhumerus -28.1842 -47.3043 109.843
lradius 141.156
lwrist 38.8501
lhand -4.7519 5.92794
lfingers 7.12502
lthumb 21.0318 34.8075
rfemur 10.2486 -12.5517 32.8784
rtibia 19.7873
rfoot -9.851 -4.81343
rtoes 3.82849
lfemur -21.9553 8.28809 -19.5218
ltibia 15.0259
lfoot 4.20019 8.41212
ltoes -17.6611
2682
root 18.4805 17.1354 -8.78805 1666.29 -101.073 -588.875
lowerback -4.01553 3.29526 9.72545
upperback -3.73846 4.0407 1.25437
thorax -1.06834 1.80055 -3.98399
lowerneck -3.30755 14.2229 8.80362
upperneck 20.8688 16.8177 8.17658
head 7.04786 9.27994 2.44916
rclavicle -6.90777e-015 2.78299e-015
rhumerus -58.1511 22.7513 -109.051
rradius 104.837
rwrist -14.3378
rhand 7.51681 7.15032
rfingers 7.12502
rthumb 32.7675 -19.8987
lclavicle -6.90777e-015 2.78299e-015
lhumerus -28.1584 -47.3371 109.79
lradius 141.154
lwrist 38.8523
lhand -4.75909 5.91812
lfingers 7.12502
lthumb 21.0249 34.7984
rfemur 10.5791 -12.5392 32.9028
rtibia 19.5786
rfoot -9.60785 -4.66782
rtoes 3.90056
lfemur -21.8383 8.49458 -19.6009
ltibia 14.4162
lfoot 4.38793 8.12836
ltoes -18.0047
2683
root 18.3851 17.131 -8.77693 1666.63 -101.18 -589.095
lowerback -4.26718 3.34911 9.89777
upperback -3.79674 4.07598 1.2446
thorax -0.973234 1.81533 -4.07431
lowerneck -3.28656 14.2217 8.81335
upperneck 20.892 16.8102 8.21016
head 7.05 9.2801 2.45709
rclavicle 2.78299e-015 2.78299e-014
rhumerus -58.1798 22.668 -109.034
rradius 104.84
rwrist -14.3273
rhand 7.47503 7.1381
rfingers 7.12502
rthumb 32.7277 -19.9192
lclavicle 2.78299e-015 2.78299e-014
lhumerus -28.1261 -47.3696 109.735
lradius 141.149
lwrist 38.8479
lhand -4.76247 5.91082
lfingers 7.12502
lthumb 21.0216 34.7915
rfemur 10.9042 -12.4924 32.933
rtibia 19.3902
rfoot -9.39104 -4.50191
rtoes 4.10509
lfemur -21.7705 8.69742 -19.6684
ltibia 13.995
lfoot 4.51204 7.83946
ltoes -18.3423
2684
root 18.2889 17.125 -8.76547 1666.96 -101.282 -589.31
lowerback -4.51821 3.40455 10.0654
upperback -3.85447 4.11259 1.23491
thorax -0.877949 1.83092 -4.16169
lowerneck -3.26606 14.219 8.82657
upperneck 20.9094 16.8026 8.23354
head 7.0516 9.27956 2.46127
rclavicle 5.42682e-014 -3.10104e-014
rhumerus -58.2051 22.5896 -109.019
rradius 104.838
rwrist -14.3072
rhand 7.44018 7.12181
rfingers 7.12502
rthumb 32.6946 -19.9423
lclavicle 5.42682e-014 -3.10104e-014
lhumerus -28.0999 -47.4035 109.687
lradius 141.141
lwrist 38.838
lhand -4.75285 5.90129
lfingers 7.12502
lthumb 21.0309 34.7809
rfemur 11.2297 -12.4159 32.9565
rtibia 19.224
rfoot -9.19364 -4.29948
rtoes 4.45054
lfemur -21.7389 8.8969 -19.7322
ltibia 13.7499
lfoot 4.59946 7.53214
ltoes -18.533
2685
root 18.192 17.1177 -8.75383 1667.26 -101.373 -589.496
lowerback -4.76183 3.45895 10.2162
upperback -3.90998 4.14839 1.22607
thorax -0.785602 1.84647 -4.23907
lowerneck -3.25172 14.2153 8.83837
upperneck 20.9273 16.795 8.24691
head 7.05512 9.2783 2.46318
rclavicle 4.19933e-014 -3.06128e-014
rhumerus -58.2299 22.5262 -109.006
rradius 104.834
rwrist -14.2769
rhand 7.40899 7.10812
rfingers 7.12502
rthumb 32.6649 -19.9622
lclavicle 4.19933e-014 -3.06128e-014
lhumerus -28.0791 -47.4314 109.646
lradius 141.127
lwrist 38.8229
lhand -4.7226 5.8743
lfingers 7.12502
lthumb 21.0599 34.7507
rfemur 11.5548 -12.3067 32.9602
rtibia 19.0836
rfoot -9.00725 -4.04953
rtoes 4.98684
lfemur -21.7215 9.09244 -19.8001
ltibia 13.6558
lfoot 4.67057 7.18746
ltoes -18.4058
2686
root 18.0944 17.1092 -8.74204 1667.5 -101.447 -589.638
lowerback -4.9952 3.51183 10.3454
upperback -3.96175 4.18349 1.21673
thorax -0.696355 1.86222 -4.30538
lowerneck -3.24402 14.2094 8.84855
upperneck 20.9439 16.7861 8.25059
head 7.06003 9.27562 2.46277
rclavicle 5.40694e-014 4.6118e-014
rhumerus -58.2549 22.479 -109
rradius 104.829
rwrist -14.2483
rhand 7.38757 7.09359
rfingers 7.12502
rthumb 32.6445 -19.981
lclavicle 5.40694e-014 4.6118e-014
lhumerus -28.0649 -47.4534 109.61
lradius 141.113
lwrist 38.8037
lhand -4.67946 5.84826
lfingers 7.12502
lthumb 21.1014 34.7201
rfemur 11.8817 -12.1865 32.9306
rtibia 18.9734
rfoot -8.8064 -3.74128
rtoes 5.61169
lfemur -21.6924 9.26897 -19.873
ltibia 13.6809
lfoot 4.7285 6.80552
ltoes -17.8058
2687
root 17.996 17.0997 -8.73001 1667.67 -101.505 -589.723
lowerback -5.21045 3.56352 10.4514
upperback -4.01202 4.21985 1.20463
thorax -0.616606 1.87876 -4.36254
lowerneck -3.2406 14.2012 8.84967
upperneck 20.9575 16.7745 8.25735
head 7.06344 9.27127 2.46431
rclavicle -1.28216e-014 -1.78906e-014
rhumerus -58.2868 22.4448 -109.001
rradius 104.828
rwrist -14.2181
rhand 7.35816 7.08023
rfingers 7.12502
rthumb 32.6165 -20.0001
lclavicle -1.28216e-014 -1.78906e-014
lhumerus -28.0621 -47.4733 109.585
lradius 141.099
lwrist 38.7881
lhand -4.62918 5.82704
lfingers 7.12502
lthumb 21.1497 34.6934
rfemur 12.2089 -12.0728 32.8575
rtibia 18.8975
rfoot -8.57089 -3.37325
rtoes 6.29282
lfemur -21.6246 9.39728 -19.9468
ltibia 13.7902
lfoot 4.76751 6.39869
ltoes -16.7081
